<?xml version="1.0" encoding="UTF-8"?>
<svg xmlns="http://www.w3.org/2000/svg" xmlns:xlink="http://www.w3.org/1999/xlink" width="480pt" height="480pt" viewBox="0 0 480 480" version="1.1">
<g id="surface1">
<path style=" stroke:none;fill-rule:nonzero;fill:#FFFFFF;fill-opacity:1;" d="M 240 60 C 195.78125 60 160 95.78125 160 140 C 160 184.21875 195.78125 220 240 220 C 284.21875 220 320 184.21875 320 140 C 320 95.78125 284.21875 60 240 60 Z M 360 240 C 293.984375 240 240 293.984375 240 360 C 240 426.015625 293.984375 480 360 480 C 426.015625 480 480 426.015625 480 360 C 480 293.984375 426.015625 240 360 240 Z M 221.015625 280.9375 C 157.8125 286.171875 60 315.9375 60 370 L 60 420 L 211.796875 420 C 204.21875 401.484375 200 381.25 200 360 C 200 331.171875 207.734375 304.296875 221.015625 280.9375 Z M 340 300 L 380 300 L 380 340 L 420 340 L 420 380 L 380 380 L 380 420 L 340 420 L 340 380 L 300 380 L 300 340 L 340 340 Z "/>
</g>
</svg>
