<?xml version="1.0" encoding="UTF-8"?>
<svg xmlns="http://www.w3.org/2000/svg" xmlns:xlink="http://www.w3.org/1999/xlink" width="480pt" height="480pt" viewBox="0 0 480 480" version="1.1">
<g id="surface1">
<path style=" stroke:none;fill-rule:nonzero;fill:#FFFFFF;fill-opacity:1;" d="M 240 40 C 129.53125 40 40 129.53125 40 240 C 40 350.46875 129.53125 440 240 440 C 253.671875 440 267.109375 438.59375 280 435.9375 L 280 380 C 280 357.890625 297.890625 340 320 340 L 340 340 L 340 320 C 340 297.890625 357.890625 280 380 280 L 435.9375 280 C 438.59375 267.109375 440 253.671875 440 240 C 440 129.53125 350.46875 40 240 40 Z M 234.296875 112.96875 L 254.375 112.96875 L 254.375 142.109375 C 260.859375 143.359375 296.796875 151.484375 296.796875 204.0625 L 258.984375 204.0625 C 258.984375 176.640625 247.265625 172.34375 242.421875 172.34375 C 239.6875 172.34375 227.265625 172.96875 227.265625 195.546875 C 227.34375 234.84375 296.484375 222.578125 296.484375 286.71875 C 296.484375 333.28125 258.28125 339.53125 251.484375 340.390625 L 251.484375 366.953125 L 231.484375 366.953125 L 231.484375 340.390625 C 225.234375 339.53125 183.28125 334.921875 183.28125 277.109375 L 221.015625 277.109375 C 221.015625 311.25 238.671875 309.84375 241.328125 309.84375 C 244.296875 309.84375 258.75 309.296875 258.75 286.953125 C 258.75 242.421875 189.53125 262.1875 189.53125 195.3125 C 189.53125 149.53125 227.5 142.421875 234.296875 141.5625 Z M 380 320 L 380 380 L 320 380 L 320 420 L 380 420 L 380 480 L 420 480 L 420 420 L 480 420 L 480 380 L 420 380 L 420 320 Z "/>
</g>
</svg>
