<?xml version="1.0" encoding="UTF-8"?>
<svg xmlns="http://www.w3.org/2000/svg" xmlns:xlink="http://www.w3.org/1999/xlink" width="480pt" height="480pt" viewBox="0 0 480 480" version="1.1">
<g id="surface1">
<path style=" stroke:none;fill-rule:nonzero;fill:#FFFFFF;fill-opacity:1;" d="M 240 40 C 129.765625 40 40 129.765625 40 240 C 40 350.234375 129.765625 440 240 440 C 249.84375 440 259.375 439.0625 268.828125 437.734375 C 290.859375 463.515625 323.59375 480 360 480 C 426.015625 480 480 426.015625 480 360 C 480 293.984375 426.015625 240 360 240 C 293.984375 240 240 293.984375 240 360 C 240 373.90625 242.5 387.1875 246.875 399.609375 C 244.609375 399.6875 242.34375 400 240 400 C 151.40625 400 80 328.59375 80 240 C 80 151.40625 151.40625 80 240 80 C 274.0625 80 305.390625 90.703125 331.25 108.75 L 300 140 L 400 140 L 400 40 L 360 80 C 326.5625 54.921875 284.921875 40 240 40 Z M 416.015625 306.015625 L 443.984375 333.984375 L 350 428.046875 L 286.015625 363.984375 L 313.984375 336.015625 L 350 371.953125 Z "/>
</g>
</svg>
