<?xml version="1.0" encoding="UTF-8"?>
<svg xmlns="http://www.w3.org/2000/svg" xmlns:xlink="http://www.w3.org/1999/xlink" width="480pt" height="480pt" viewBox="0 0 480 480" version="1.1">
<g id="surface1">
<path style=" stroke:none;fill-rule:nonzero;fill:#FFFFFF;fill-opacity:1;" d="M 420 180 L 420 130 L 240 50 L 60 130 L 60 180 L 100 180 L 100 380 L 60 380 L 60 420 L 420 420 L 420 380 L 380 380 L 380 180 Z M 296.484375 286.71875 C 296.484375 333.28125 258.28125 339.53125 251.484375 340.390625 L 251.484375 367.03125 L 231.484375 367.03125 L 231.484375 340.390625 C 225.234375 339.53125 183.203125 334.921875 183.203125 277.109375 L 221.015625 277.109375 C 221.015625 311.25 238.671875 309.84375 241.328125 309.84375 C 244.296875 309.84375 258.671875 309.296875 258.671875 286.953125 C 258.671875 242.421875 189.53125 262.1875 189.53125 195.390625 C 189.53125 149.53125 227.5 142.421875 234.296875 141.5625 L 234.296875 112.96875 L 254.453125 112.96875 L 254.453125 142.109375 C 260.859375 143.359375 296.796875 151.5625 296.796875 204.0625 L 258.984375 204.0625 C 258.984375 176.640625 247.265625 172.265625 242.421875 172.265625 C 239.6875 172.265625 227.265625 172.96875 227.265625 195.546875 C 227.34375 234.84375 296.484375 222.578125 296.484375 286.71875 Z "/>
</g>
</svg>
