<?xml version="1.0" encoding="UTF-8"?>
<svg xmlns="http://www.w3.org/2000/svg" xmlns:xlink="http://www.w3.org/1999/xlink" width="480pt" height="480pt" viewBox="0 0 480 480" version="1.1">
<g id="surface1">
<path style=" stroke:none;fill-rule:nonzero;fill:#FFFFFF;fill-opacity:1;" d="M 240 40 C 129.765625 40 40 129.765625 40 240 C 40 350.234375 129.765625 440 240 440 L 340 440 L 340 400 L 240 400 C 151.40625 400 80 328.59375 80 240 C 80 151.40625 151.40625 80 240 80 C 328.59375 80 400 151.40625 400 240 L 400 270 C 400 286.796875 386.796875 300 370 300 C 353.203125 300 340 286.796875 340 270 L 340 240 C 340 185 295 140 240 140 C 185 140 140 185 140 240 C 140 295 185 340 240 340 C 268.28125 340 293.75 327.96875 311.953125 308.984375 C 324.609375 327.65625 345.9375 340 370 340 C 408.4375 340 440 308.4375 440 270 L 440 240 C 440 129.765625 350.234375 40 240 40 Z M 240 180 C 273.359375 180 300 206.640625 300 240 C 300 273.359375 273.359375 300 240 300 C 206.640625 300 180 273.359375 180 240 C 180 206.640625 206.640625 180 240 180 Z "/>
</g>
</svg>
