<?xml version="1.0" encoding="UTF-8"?>
<svg xmlns="http://www.w3.org/2000/svg" xmlns:xlink="http://www.w3.org/1999/xlink" width="480pt" height="480pt" viewBox="0 0 480 480" version="1.1">
<g id="surface1">
<path style=" stroke:none;fill-rule:nonzero;fill:#FFFFFF;fill-opacity:1;" d="M 240 40 C 129.53125 40 40 129.53125 40 240 C 40 340.234375 113.828125 423.046875 210.078125 437.5 L 210.078125 292.96875 L 160.625 292.96875 L 160.625 240.390625 L 210.078125 240.390625 L 210.078125 205.46875 C 210.078125 147.5 238.28125 122.109375 286.484375 122.109375 C 309.53125 122.109375 321.71875 123.828125 327.5 124.609375 L 327.5 170.46875 L 294.609375 170.46875 C 274.21875 170.46875 267.03125 189.84375 267.03125 211.71875 L 267.03125 240.390625 L 326.953125 240.390625 L 318.828125 292.96875 L 267.109375 292.96875 L 267.109375 437.96875 C 364.6875 424.6875 440 341.25 440 240 C 440 129.53125 350.46875 40 240 40 Z "/>
</g>
</svg>
