<?xml version="1.0" encoding="UTF-8"?>
<svg xmlns="http://www.w3.org/2000/svg" xmlns:xlink="http://www.w3.org/1999/xlink" width="96pt" height="96pt" viewBox="0 0 96 96" version="1.1">
<g id="surface1">
<path style=" stroke:none;fill-rule:nonzero;fill:#FFFFFF;fill-opacity:1;" d="M 48 8 C 46.9375 8 45.90625 8.421875 45.15625 9.1875 L 4.8125 44.390625 C 4.296875 44.765625 4 45.359375 4 46 C 4 47.109375 4.890625 48 6 48 L 16 48 L 16 80 C 16 82.203125 17.796875 84 20 84 L 32 84 C 34.203125 84 36 82.203125 36 80 L 36 56 L 60 56 L 60 80 C 60 82.203125 61.796875 84 64 84 L 76 84 C 78.203125 84 80 82.203125 80 80 L 80 48 L 90 48 C 91.109375 48 92 47.109375 92 46 C 92 45.359375 91.703125 44.765625 91.1875 44.390625 L 76 31.140625 L 76 20 C 76 17.796875 74.203125 16 72 16 C 69.796875 16 68 17.796875 68 20 L 68 24.15625 L 50.875 9.21875 C 50.859375 9.203125 50.859375 9.1875 50.84375 9.1875 C 50.09375 8.421875 49.0625 8 48 8 Z "/>
</g>
</svg>
