<?xml version="1.0" encoding="UTF-8"?>
<svg xmlns="http://www.w3.org/2000/svg" xmlns:xlink="http://www.w3.org/1999/xlink" width="480pt" height="480pt" viewBox="0 0 480 480" version="1.1">
<g id="surface1">
<path style=" stroke:none;fill-rule:nonzero;fill:#FFFFFF;fill-opacity:1;" d="M 160 60 C 104.765625 60 60 104.765625 60 160 L 60 320 C 60 375.234375 104.765625 420 160 420 L 320 420 C 375.234375 420 420 375.234375 420 320 L 420 160 C 420 104.765625 375.234375 60 320 60 Z M 360 100 C 371.015625 100 380 108.984375 380 120 C 380 131.015625 371.015625 140 360 140 C 348.984375 140 340 131.015625 340 120 C 340 108.984375 348.984375 100 360 100 Z M 240 140 C 295.234375 140 340 184.765625 340 240 C 340 295.234375 295.234375 340 240 340 C 184.765625 340 140 295.234375 140 240 C 140 184.765625 184.765625 140 240 140 Z M 240 180 C 206.875 180 180 206.875 180 240 C 180 273.125 206.875 300 240 300 C 273.125 300 300 273.125 300 240 C 300 206.875 273.125 180 240 180 Z "/>
</g>
</svg>
