<?xml version="1.0" encoding="UTF-8"?>
<svg xmlns="http://www.w3.org/2000/svg" xmlns:xlink="http://www.w3.org/1999/xlink" width="480pt" height="480pt" viewBox="0 0 480 480" version="1.1">
<g id="surface1">
<path style=" stroke:none;fill-rule:nonzero;fill:#FFFFFF;fill-opacity:1;" d="M 80 80 C 59.53125 80 42.8125 95.46875 40.46875 115.3125 L 240 240 L 439.53125 115.3125 C 437.1875 95.46875 420.46875 80 400 80 Z M 40 155 L 40 360 C 40 382.109375 57.890625 400 80 400 L 320.46875 400 C 326.5625 396.640625 332.96875 393.75 339.53125 391.328125 C 327.578125 377.421875 320 359.765625 320 340 C 320 295.859375 355.859375 260 400 260 C 414.609375 260 428.203125 264.21875 440 271.171875 L 440 155 L 240 280 Z M 400 300 C 377.890625 300 360 317.890625 360 340 C 360 362.109375 377.890625 380 400 380 C 422.109375 380 440 362.109375 440 340 C 440 317.890625 422.109375 300 400 300 Z M 400 420 C 373.28125 420 320 433.4375 320 460 L 320 480 L 480 480 L 480 460 C 480 433.4375 426.71875 420 400 420 Z "/>
</g>
</svg>
