<?xml version="1.0" encoding="UTF-8"?>
<svg xmlns="http://www.w3.org/2000/svg" xmlns:xlink="http://www.w3.org/1999/xlink" width="480pt" height="480pt" viewBox="0 0 480 480" version="1.1">
<g id="surface1">
<path style=" stroke:none;fill-rule:nonzero;fill:#FFFFFF;fill-opacity:1;" d="M 80 80 C 57.890625 80 40 97.890625 40 120 L 40 140 L 440 140 L 440 120 C 440 97.890625 422.109375 80 400 80 Z M 40 200 L 40 360 C 40 382.109375 57.890625 400 80 400 L 400 400 C 422.109375 400 440 382.109375 440 360 L 440 200 Z M 300 260 C 307.34375 260 314.0625 262.109375 320 265.546875 C 325.9375 262.109375 332.65625 260 340 260 C 362.109375 260 380 277.890625 380 300 C 380 322.109375 362.109375 340 340 340 C 332.65625 340 325.9375 337.890625 320 334.453125 C 314.0625 337.890625 307.34375 340 300 340 C 277.890625 340 260 322.109375 260 300 C 260 277.890625 277.890625 260 300 260 Z M 320 334.453125 C 331.015625 334.453125 340 319.0625 340 300 C 340 280.9375 331.015625 265.546875 320 265.546875 C 308.984375 265.546875 300 280.9375 300 300 C 300 319.0625 308.984375 334.453125 320 334.453125 Z "/>
</g>
</svg>
