<?xml version="1.0" encoding="UTF-8"?>
<svg xmlns="http://www.w3.org/2000/svg" xmlns:xlink="http://www.w3.org/1999/xlink" width="480pt" height="480pt" viewBox="0 0 480 480" version="1.1">
<g id="surface1">
<path style=" stroke:none;fill-rule:nonzero;fill:#FFFFFF;fill-opacity:1;" d="M 200 20 C 166.875 20 140 46.875 140 80 C 140 95.46875 146.015625 109.375 155.625 120 L 244.375 120 C 253.984375 109.375 260 95.46875 260 80 C 260 46.875 233.125 20 200 20 Z M 400 120 L 341.25 155.3125 C 325.9375 145.78125 308.671875 137.734375 289.375 131.875 L 284.609375 146.328125 C 281.875 154.453125 274.21875 160 265.625 160 L 134.375 160 C 125.78125 160 118.125 154.53125 115.46875 146.328125 L 113.90625 141.5625 C 79.609375 159.609375 56.25 187.8125 46.015625 220.9375 C 44.0625 220.3125 42.03125 220 40 220 C 28.984375 220 20 228.984375 20 240 C 20 251.015625 28.984375 260 40 260 C 40 283.28125 47.8125 307.03125 61.484375 328.828125 L 77.1875 423.28125 C 78.828125 432.96875 87.1875 440 96.953125 440 L 143.046875 440 C 152.8125 440 161.171875 432.96875 162.8125 423.28125 L 165.15625 408.984375 C 185.390625 415.859375 207.1875 420 230 420 C 243.90625 420 257.421875 418.828125 270.390625 416.796875 L 278.515625 430.3125 C 282.1875 436.328125 288.671875 440 295.703125 440 L 340 440 C 352.65625 440 362.03125 428.4375 359.609375 416.09375 L 353.671875 386.171875 C 373.671875 373.515625 390 357.734375 401.484375 340 L 424.375 340 C 433.59375 340 441.5625 333.75 443.75 324.84375 L 455.546875 277.96875 C 458.046875 267.8125 452.34375 257.421875 442.421875 254.140625 L 414.453125 244.84375 C 409.0625 227.265625 399.765625 210.15625 386.796875 194.453125 C 394.0625 175.546875 400 150.78125 400 120 Z M 360 240 C 371.015625 240 380 248.984375 380 260 C 380 271.015625 371.015625 280 360 280 C 348.984375 280 340 271.015625 340 260 C 340 248.984375 348.984375 240 360 240 Z "/>
</g>
</svg>
