<?xml version="1.0" encoding="UTF-8"?>
<svg xmlns="http://www.w3.org/2000/svg" xmlns:xlink="http://www.w3.org/1999/xlink" width="480pt" height="480pt" viewBox="0 0 480 480" version="1.1">
<g id="surface1">
<path style=" stroke:none;fill-rule:nonzero;fill:#FFFFFF;fill-opacity:1;" d="M 400.46875 309.765625 C 387.890625 309.453125 372.03125 308.75 361.953125 306.953125 C 351.171875 305.078125 338.125 301.328125 328.90625 298.4375 C 321.71875 296.25 313.90625 298.203125 308.515625 303.515625 L 264.21875 347.578125 C 233.59375 331.484375 208.984375 312.65625 188.203125 291.796875 C 167.34375 271.015625 148.515625 246.40625 132.421875 215.78125 L 176.484375 171.40625 C 181.796875 166.09375 183.75 158.28125 181.5625 151.09375 C 178.671875 141.875 174.921875 128.828125 173.046875 118.046875 C 171.25 107.96875 170.546875 92.109375 170.234375 79.53125 C 170 68.671875 161.09375 60 150.234375 60 L 80 60 C 71.25 60 60 66.5625 60 80 C 60 170.78125 96.796875 257.5 159.296875 320.703125 C 222.5 383.203125 309.21875 420 400 420 C 413.4375 420 420 408.75 420 400 L 420 329.765625 C 420 318.90625 411.328125 310 400.46875 309.765625 Z "/>
</g>
</svg>
