<?xml version="1.0" encoding="UTF-8"?>
<svg xmlns="http://www.w3.org/2000/svg" xmlns:xlink="http://www.w3.org/1999/xlink" width="480pt" height="480pt" viewBox="0 0 480 480" version="1.1">
<g id="surface1">
<path style=" stroke:none;fill-rule:nonzero;fill:#FFFFFF;fill-opacity:1;" d="M 210 60 C 182.34375 60 160 82.34375 160 110 C 160 137.65625 182.34375 160 210 160 C 213.4375 160 216.796875 159.609375 220.078125 158.984375 C 220.3125 128.90625 231.640625 101.484375 250.234375 80.546875 C 241.171875 68.125 226.5625 60 210 60 Z M 340 80 C 295.78125 80 260 115.78125 260 160 C 260 204.21875 295.78125 240 340 240 C 384.21875 240 420 204.21875 420 160 C 420 115.78125 384.21875 80 340 80 Z M 120 220 C 113.828125 220 107.65625 221.015625 101.71875 222.890625 L 20 242.1875 L 20 386.171875 L 100 360 L 263.125 417.109375 C 276.171875 421.640625 290.546875 420.546875 302.734375 414.0625 L 449.296875 335.625 L 425.703125 285.390625 L 281.640625 351.484375 L 274.296875 341.640625 L 280.078125 328.515625 C 289.21875 308.28125 280 284.453125 259.609375 275.546875 L 144.6875 225.3125 C 143.90625 225 143.203125 224.6875 142.5 224.375 C 135.390625 221.484375 127.734375 220 120 220 Z "/>
</g>
</svg>
