<?xml version="1.0" encoding="UTF-8"?>
<svg xmlns="http://www.w3.org/2000/svg" xmlns:xlink="http://www.w3.org/1999/xlink" width="480pt" height="480pt" viewBox="0 0 480 480" version="1.1">
<g id="surface1">
<path style=" stroke:none;fill-rule:nonzero;fill:#FFFFFF;fill-opacity:1;" d="M 250 60 C 222.421875 60 200 82.421875 200 110 C 200 137.578125 222.421875 160 250 160 C 277.578125 160 300 137.578125 300 110 C 300 82.421875 277.578125 60 250 60 Z M 120 120 C 97.890625 120 80 137.890625 80 160 C 80 182.109375 97.890625 200 120 200 C 142.109375 200 160 182.109375 160 160 C 160 137.890625 142.109375 120 120 120 Z M 360 140 C 348.984375 140 340 148.984375 340 160 C 340 171.015625 348.984375 180 360 180 C 371.015625 180 380 171.015625 380 160 C 380 148.984375 371.015625 140 360 140 Z M 90 240 C 73.4375 240 60 253.4375 60 270 C 60 286.5625 73.4375 300 90 300 C 106.5625 300 120 286.5625 120 270 C 120 253.4375 106.5625 240 90 240 Z M 400 240 C 388.984375 240 380 248.984375 380 260 C 380 271.015625 388.984375 280 400 280 C 411.015625 280 420 271.015625 420 260 C 420 248.984375 411.015625 240 400 240 Z M 150 340 C 133.4375 340 120 353.4375 120 370 C 120 386.5625 133.4375 400 150 400 C 166.5625 400 180 386.5625 180 370 C 180 353.4375 166.5625 340 150 340 Z M 360 340 C 348.984375 340 340 348.984375 340 360 C 340 371.015625 348.984375 380 360 380 C 371.015625 380 380 371.015625 380 360 C 380 348.984375 371.015625 340 360 340 Z M 250 360 C 233.4375 360 220 373.4375 220 390 C 220 406.5625 233.4375 420 250 420 C 266.5625 420 280 406.5625 280 390 C 280 373.4375 266.5625 360 250 360 Z "/>
</g>
</svg>
