<?xml version="1.0" encoding="UTF-8"?>
<svg xmlns="http://www.w3.org/2000/svg" xmlns:xlink="http://www.w3.org/1999/xlink" width="480pt" height="480pt" viewBox="0 0 480 480" version="1.1">
<g id="surface1">
<path style=" stroke:none;fill-rule:nonzero;fill:#FFFFFF;fill-opacity:1;" d="M 440 80 C 424.375 89.21875 393.125 101.875 374.6875 105.46875 C 374.140625 105.625 373.75 105.78125 373.203125 105.9375 C 356.953125 89.921875 334.6875 80 310 80 C 260.3125 80 220 120.3125 220 170 C 220 172.578125 219.765625 177.421875 220 180 C 152.96875 180 101.875 144.84375 65.3125 100 C 61.328125 110 59.609375 125.78125 59.609375 140.625 C 59.609375 168.671875 81.484375 196.171875 115.546875 213.203125 C 109.296875 214.84375 102.34375 216.015625 95.15625 216.015625 C 83.59375 216.015625 71.25 212.96875 60 203.671875 C 60 203.984375 60 204.296875 60 204.6875 C 60 243.828125 101.5625 270.46875 138.515625 277.890625 C 131.015625 282.34375 115.9375 282.8125 108.515625 282.8125 C 103.28125 282.8125 84.921875 280.390625 80 279.453125 C 90.3125 311.5625 127.34375 329.609375 162.734375 330.234375 C 135.078125 351.953125 115.859375 360 59.296875 360 L 40 360 C 75.78125 382.890625 121.328125 400 166.953125 400 C 315.546875 400 400 286.71875 400 180 C 400 178.28125 399.921875 174.6875 399.921875 171.015625 C 399.921875 170.703125 400 170.3125 400 170 C 400 169.453125 399.84375 168.90625 399.84375 168.359375 C 399.765625 165.625 399.6875 163.125 399.6875 161.796875 C 415.46875 150.390625 429.140625 136.171875 440 120 C 425.46875 126.40625 409.921875 130.703125 393.59375 132.734375 C 410.3125 122.734375 433.984375 98.828125 440 80 Z "/>
</g>
</svg>
