<?xml version="1.0" encoding="UTF-8"?>
<svg xmlns="http://www.w3.org/2000/svg" xmlns:xlink="http://www.w3.org/1999/xlink" width="480pt" height="480pt" viewBox="0 0 480 480" version="1.1">
<g id="surface1">
<path style=" stroke:none;fill-rule:nonzero;fill:#FFFFFF;fill-opacity:1;" d="M 240 60 C 195.78125 60 160 95.78125 160 140 C 160 184.21875 195.78125 220 240 220 C 284.21875 220 320 184.21875 320 140 C 320 95.78125 284.21875 60 240 60 Z M 176.25 287.8125 C 119.84375 300.3125 60 327.734375 60 370 L 60 420 L 420 420 L 420 370 C 420 327.734375 360.15625 300.3125 303.75 287.8125 C 289.21875 307.265625 266.171875 320 240 320 C 213.828125 320 190.78125 307.265625 176.25 287.8125 Z "/>
</g>
</svg>
