<?xml version="1.0" encoding="UTF-8"?>
<svg xmlns="http://www.w3.org/2000/svg" xmlns:xlink="http://www.w3.org/1999/xlink" width="480pt" height="480pt" viewBox="0 0 480 480" version="1.1">
<g id="surface1">
<path style=" stroke:none;fill-rule:nonzero;fill:#FFFFFF;fill-opacity:1;" d="M 431.640625 123.75 C 427.03125 106.484375 413.515625 92.96875 396.25 88.359375 C 365.078125 80 240 80 240 80 C 240 80 114.921875 80 83.75 88.359375 C 66.484375 92.96875 52.96875 106.484375 48.359375 123.75 C 40 154.921875 40 240 40 240 C 40 240 40 325.078125 48.359375 356.25 C 52.96875 373.515625 66.484375 387.03125 83.75 391.640625 C 114.921875 400 240 400 240 400 C 240 400 365.078125 400 396.25 391.640625 C 413.515625 387.03125 427.03125 373.515625 431.640625 356.25 C 440 325.078125 440 240 440 240 C 440 240 440 154.921875 431.640625 123.75 Z M 200 309.296875 L 200 170.703125 L 320 240 Z "/>
</g>
</svg>
