<?xml version="1.0" encoding="UTF-8"?>
<svg xmlns="http://www.w3.org/2000/svg" xmlns:xlink="http://www.w3.org/1999/xlink" width="512pt" height="512pt" viewBox="0 0 512 512" version="1.1">
<defs>
<linearGradient id="linear0" gradientUnits="userSpaceOnUse" x1="44.25" y1="12.8333" x2="44.25" y2="25" spreadMethod="reflect" gradientTransform="matrix(8,0,0,8,0,0)">
<stop offset="0" style="stop-color:#6DC7FF;stop-opacity:1;"/>
<stop offset="1" style="stop-color:#E6ABFF;stop-opacity:1;"/>
</linearGradient>
<linearGradient id="linear1" gradientUnits="userSpaceOnUse" x1="32" y1="6.1667" x2="32" y2="57.4245" spreadMethod="reflect" gradientTransform="matrix(8,0,0,8,0,0)">
<stop offset="0" style="stop-color:#1A6DFF;stop-opacity:1;"/>
<stop offset="1" style="stop-color:#C822FF;stop-opacity:1;"/>
</linearGradient>
<linearGradient id="linear2" gradientUnits="userSpaceOnUse" x1="39.0542" y1="6.1667" x2="39.0542" y2="57.4245" spreadMethod="reflect" gradientTransform="matrix(8,0,0,8,0,0)">
<stop offset="0" style="stop-color:#1A6DFF;stop-opacity:1;"/>
<stop offset="1" style="stop-color:#C822FF;stop-opacity:1;"/>
</linearGradient>
<linearGradient id="linear3" gradientUnits="userSpaceOnUse" x1="37" y1="6.1667" x2="37" y2="57.4245" spreadMethod="reflect" gradientTransform="matrix(8,0,0,8,0,0)">
<stop offset="0" style="stop-color:#1A6DFF;stop-opacity:1;"/>
<stop offset="1" style="stop-color:#C822FF;stop-opacity:1;"/>
</linearGradient>
</defs>
<g id="surface1">
<path style=" stroke:none;fill-rule:nonzero;fill:url(#linear0);" d="M 320 112 L 320 192 L 388 152 Z "/>
<path style=" stroke:none;fill-rule:nonzero;fill:url(#linear1);" d="M 440.9375 144 L 424 144 L 424 160 L 440.9375 160 C 444.832031 160 448 163.167969 448 167.054688 L 417.296875 296 L 384 296 L 384 240 L 368 240 L 368 296 L 352 296 L 352 256 L 336 256 L 336 296 L 320 296 L 320 272 L 304 272 L 304 296 L 288 296 L 288 256 L 272 256 L 272 296 L 256 296 L 256 240 L 240 240 L 240 296 L 206.808594 296 L 154.6875 74.503906 C 152.136719 63.609375 142.519531 56 131.328125 56 L 72 56 C 58.769531 56 48 66.769531 48 80 C 48 93.230469 58.769531 104 72 104 L 145.183594 104 L 191.496094 300.816406 C 197.488281 326.238281 219.902344 344 246.023438 344 L 378.078125 344 C 404.128906 344 426.535156 326.304688 432.566406 300.960938 L 463.558594 170.816406 C 463.847656 169.601563 464 168.335938 464 167.054688 C 464 154.34375 453.65625 144 440.9375 144 Z M 72 88 C 67.585938 88 64 84.40625 64 80 C 64 75.59375 67.585938 72 72 72 L 131.328125 72 C 135.0625 72 138.257813 74.527344 139.113281 78.167969 L 141.425781 88 Z M 378.078125 328 L 246.023438 328 C 233.078125 328 221.511719 321.808594 214.152344 312 L 409.953125 312 C 402.585938 321.800781 391.015625 328 378.078125 328 Z "/>
<path style=" stroke:none;fill-rule:nonzero;fill:url(#linear2);" d="M 312 185.832031 C 312 191.679688 315.039063 196.886719 320.136719 199.777344 C 322.625 201.183594 325.320313 201.886719 328.03125 201.886719 C 330.863281 201.886719 333.695313 201.113281 336.265625 199.574219 L 381.199219 172.617188 C 388.503906 168.230469 392.863281 160.527344 392.863281 152.007813 C 392.863281 143.488281 388.503906 135.785156 381.199219 131.398438 L 336.265625 104.441406 C 331.230469 101.433594 325.207031 101.359375 320.128906 104.238281 C 315.039063 107.113281 312 112.320313 312 118.167969 L 312 144 L 232 144 L 232 160 L 312 160 Z M 328.03125 118.152344 L 372.96875 145.113281 C 376.480469 147.222656 376.863281 150.632813 376.863281 152 C 376.863281 153.367188 376.480469 156.777344 372.96875 158.886719 L 328 185.878906 Z "/>
<path style=" stroke:none;fill-rule:nonzero;fill:url(#linear3);" d="M 368 376 C 348.6875 376 332.527344 389.769531 328.808594 408 L 263.191406 408 C 259.472656 389.769531 243.320313 376 224 376 C 201.945313 376 184 393.945313 184 416 C 184 438.054688 201.945313 456 224 456 C 243.3125 456 259.472656 442.230469 263.191406 424 L 328.808594 424 C 332.527344 442.230469 348.679688 456 368 456 C 390.054688 456 408 438.054688 408 416 C 408 393.945313 390.054688 376 368 376 Z M 224 440 C 210.769531 440 200 429.230469 200 416 C 200 402.769531 210.769531 392 224 392 C 237.230469 392 248 402.769531 248 416 C 248 429.230469 237.230469 440 224 440 Z M 368 440 C 354.769531 440 344 429.230469 344 416 C 344 402.769531 354.769531 392 368 392 C 381.230469 392 392 402.769531 392 416 C 392 429.230469 381.230469 440 368 440 Z "/>
</g>
</svg>
