<?xml version="1.0" encoding="UTF-8"?>
<svg xmlns="http://www.w3.org/2000/svg" xmlns:xlink="http://www.w3.org/1999/xlink" width="512pt" height="512pt" viewBox="0 0 512 512" version="1.1">
<defs>
<linearGradient id="linear0" gradientUnits="userSpaceOnUse" x1="36.5" y1="29.1667" x2="36.5" y2="34.6692" spreadMethod="reflect" gradientTransform="matrix(8,0,0,8,0,0)">
<stop offset="0" style="stop-color:#6DC7FF;stop-opacity:1;"/>
<stop offset="1" style="stop-color:#E6ABFF;stop-opacity:1;"/>
</linearGradient>
<linearGradient id="linear1" gradientUnits="userSpaceOnUse" x1="27.5" y1="29.1667" x2="27.5" y2="34.6692" spreadMethod="reflect" gradientTransform="matrix(8,0,0,8,0,0)">
<stop offset="0" style="stop-color:#6DC7FF;stop-opacity:1;"/>
<stop offset="1" style="stop-color:#E6ABFF;stop-opacity:1;"/>
</linearGradient>
<linearGradient id="linear2" gradientUnits="userSpaceOnUse" x1="32" y1="36.8333" x2="32" y2="41.3341" spreadMethod="reflect" gradientTransform="matrix(8,0,0,8,0,0)">
<stop offset="0" style="stop-color:#6DC7FF;stop-opacity:1;"/>
<stop offset="1" style="stop-color:#E6ABFF;stop-opacity:1;"/>
</linearGradient>
<linearGradient id="linear3" gradientUnits="userSpaceOnUse" x1="32" y1="4.5" x2="32" y2="59.0464" spreadMethod="reflect" gradientTransform="matrix(8,0,0,8,0,0)">
<stop offset="0" style="stop-color:#1A6DFF;stop-opacity:1;"/>
<stop offset="1" style="stop-color:#C822FF;stop-opacity:1;"/>
</linearGradient>
</defs>
<g id="surface1">
<path style=" stroke:none;fill-rule:nonzero;fill:url(#linear0);" d="M 312 256 C 312 267.046875 303.046875 276 292 276 C 280.953125 276 272 267.046875 272 256 C 272 244.953125 280.953125 236 292 236 C 303.046875 236 312 244.953125 312 256 Z "/>
<path style=" stroke:none;fill-rule:nonzero;fill:url(#linear1);" d="M 240 256 C 240 267.046875 231.046875 276 220 276 C 208.953125 276 200 267.046875 200 256 C 200 244.953125 208.953125 236 220 236 C 231.046875 236 240 244.953125 240 256 Z "/>
<path style=" stroke:none;fill-rule:nonzero;fill:url(#linear2);" d="M 224 296 C 224 313.671875 238.328125 328 256 328 C 273.671875 328 288 313.671875 288 296 Z "/>
<path style=" stroke:none;fill-rule:nonzero;fill:url(#linear3);" d="M 256 48 C 141.304688 48 48 141.304688 48 256 C 48 370.695313 141.304688 464 256 464 C 370.695313 464 464 370.695313 464 256 C 464 141.304688 370.695313 48 256 48 Z M 256 64 C 361.863281 64 448 150.136719 448 256 C 448 302.496094 431.375 345.183594 403.769531 378.441406 C 386.992188 355.824219 365.367188 337.457031 340.382813 324.542969 C 348.175781 313.71875 353.910156 301.367188 357.089844 288 L 360 288 C 382.054688 288 400 270.054688 400 248 C 400 225.945313 382.054688 208 360 208 L 359.59375 208 C 355.480469 154.390625 310.640625 112 256 112 C 201.359375 112 156.519531 154.390625 152.40625 208 L 152 208 C 129.945313 208 112 225.945313 112 248 C 112 270.054688 129.945313 288 152 288 L 154.902344 288 C 158.078125 301.375 163.824219 313.734375 171.625 324.558594 C 146.648438 337.472656 125 355.832031 108.222656 378.433594 C 80.625 345.175781 64 302.496094 64 256 C 64 150.136719 150.136719 64 256 64 Z M 182.425781 167.863281 C 182.953125 167.894531 183.464844 168 184 168 C 201.03125 168 214.863281 154.601563 215.816406 137.800781 C 220.839844 135.207031 226.144531 133.089844 231.671875 131.496094 C 231.816406 132.992188 232 134.488281 232 136 C 232 162.472656 210.472656 184 184 184 C 180.761719 184 177.585938 183.640625 174.472656 183.015625 C 176.640625 177.6875 179.304688 172.617188 182.425781 167.863281 Z M 322.289063 158.304688 C 319.007813 159.414063 315.550781 160 312 160 C 295.550781 160 282.128906 147.488281 280.351563 131.503906 C 296.832031 136.265625 311.304688 145.703125 322.289063 158.304688 Z M 264.023438 128.40625 C 264.238281 154.6875 285.671875 176 312 176 C 318.960938 176 325.648438 174.398438 331.832031 171.574219 C 334.542969 176.183594 336.824219 181.046875 338.671875 186.144531 C 330.351563 189.960938 321.304688 192 312 192 C 276.847656 192 248.238281 163.503906 248.023438 128.40625 C 250.65625 128.167969 253.304688 128 256 128 C 258.703125 128 261.375 128.167969 264.023438 128.40625 Z M 168 216 C 168 209.976563 168.617188 204.097656 169.777344 198.40625 C 174.398438 199.464844 179.152344 200 184 200 C 208.910156 200 230.488281 185.664063 241.054688 164.832031 C 254.414063 190.441406 281.175781 208 312 208 C 322.671875 208 333.039063 205.726563 342.726563 201.679688 C 343.496094 206.351563 344 211.113281 344 216 L 344 264 C 344 312.519531 304.519531 352 256 352 C 207.480469 352 168 312.519531 168 264 Z M 256 368 C 284.839844 368 310.960938 356.183594 329.816406 337.160156 C 335.527344 339.960938 341.097656 342.992188 346.425781 346.390625 C 322.488281 370.335938 290.136719 384 256 384 C 221.871094 384 189.519531 370.34375 165.574219 346.390625 C 170.894531 342.992188 176.464844 339.945313 182.175781 337.144531 C 201.03125 356.183594 227.160156 368 256 368 Z M 360 224 C 373.230469 224 384 234.769531 384 248 C 384 261.230469 373.230469 272 360 272 Z M 152 264 L 152 272 C 138.769531 272 128 261.230469 128 248 C 128 234.769531 138.769531 224 152 224 Z M 256 448 C 202.511719 448 154.078125 425.992188 119.230469 390.585938 C 128.648438 377.382813 139.824219 365.6875 152.464844 355.785156 C 179.558594 383.886719 216.710938 400 256 400 C 295.296875 400 332.449219 383.886719 359.535156 355.785156 C 372.167969 365.6875 383.351563 377.375 392.769531 390.585938 C 357.910156 425.992188 309.488281 448 256 448 Z "/>
</g>
</svg>
