<?xml version="1.0" encoding="UTF-8"?>
<svg xmlns="http://www.w3.org/2000/svg" xmlns:xlink="http://www.w3.org/1999/xlink" width="480pt" height="480pt" viewBox="0 0 480 480" version="1.1">
<g id="surface1">
<path style=" stroke:none;fill-rule:nonzero;fill:#2196F3;fill-opacity:1;" d="M 409.769531 228.921875 C 408.269531 263.628906 399.691406 291.179688 384.039063 311.578125 C 368.390625 331.980469 347.328125 342.171875 320.910156 342.171875 C 309.238281 342.171875 299.179688 339.660156 290.699219 334.648438 C 282.230469 329.660156 275.839844 322.449219 271.488281 313.109375 C 257.941406 332.078125 240.238281 341.578125 218.421875 341.578125 C 198.628906 341.578125 183.308594 333.230469 172.480469 316.558594 C 161.640625 299.878906 157.558594 277.871094 160.269531 250.488281 C 162.710938 228.128906 168.378906 208.21875 177.261719 190.800781 C 186.128906 173.398438 197.351563 160 210.898438 150.648438 C 224.449219 141.300781 239.089844 136.621094 254.820313 136.621094 C 274.199219 136.621094 290.738281 141.101563 304.429688 150.058594 L 317.238281 158.789063 L 306.878906 276.300781 C 305.519531 287 306.699219 295.210938 310.441406 300.890625 C 314.160156 306.589844 320.089844 309.429688 328.21875 309.429688 C 340.691406 309.429688 351.128906 302.140625 359.53125 287.558594 C 367.929688 273 372.539063 253.941406 373.359375 230.328125 C 375.660156 183.019531 366.148438 146.648438 344.808594 121.261719 C 323.449219 95.851563 291.828125 83.128906 249.960938 83.128906 C 223.789063 83.128906 200.480469 89.769531 180.019531 103.058594 C 159.550781 116.351563 143.410156 135.230469 131.628906 159.699219 C 119.828125 184.148438 113.179688 212.171875 111.691406 243.761719 C 109.53125 291.738281 119.148438 328.851563 140.570313 355.070313 C 161.980469 381.300781 194.039063 394.410156 236.738281 394.410156 C 247.988281 394.410156 259.78125 393.171875 272.121094 390.648438 C 284.441406 388.140625 295.101563 384.78125 304.03125 380.589844 L 311.761719 411.890625 C 303.488281 417.320313 292.351563 421.699219 278.300781 425.019531 C 264.289063 428.359375 250.148438 430 235.921875 430 C 200.128906 430 169.640625 422.769531 144.429688 408.359375 C 119.21875 393.921875 100.410156 372.648438 88.011719 344.511719 C 75.609375 316.378906 70.21875 282.78125 71.839844 243.769531 C 73.460938 206.339844 82 172.800781 97.46875 143.128906 C 112.910156 113.441406 133.949219 90.488281 160.601563 74.320313 C 187.21875 58.109375 217.28125 50 250.761719 50 C 284.769531 50 314.058594 57.289063 338.589844 71.859375 C 363.109375 86.421875 381.480469 107.261719 393.691406 134.371094 C 405.898438 161.480469 411.25 192.988281 409.769531 228.921875 Z M 205.421875 250.46875 C 203.921875 268.359375 205.488281 281.949219 210.101563 291.230469 C 214.691406 300.519531 222.160156 305.179688 232.460938 305.179688 C 239.101563 305.179688 245.398438 302.261719 251.371094 296.421875 C 257.328125 290.589844 262.289063 282.199219 266.210938 271.210938 L 274.75 175.039063 C 269.480469 173.269531 264.039063 172.398438 258.488281 172.398438 C 242.898438 172.398438 230.800781 179.039063 222.199219 192.320313 C 213.578125 205.601563 207.988281 225 205.421875 250.46875 Z "/>
</g>
</svg>
