<?xml version="1.0" encoding="UTF-8"?>
<svg xmlns="http://www.w3.org/2000/svg" xmlns:xlink="http://www.w3.org/1999/xlink" width="500pt" height="500pt" viewBox="0 0 500 500" version="1.1">
<g id="surface1">
<path style=" stroke:none;fill-rule:nonzero;fill:#FFFFFF;fill-opacity:1;" d="M 406.746094 39.683594 L 89.285156 39.683594 C 61.886719 39.683594 39.683594 61.886719 39.683594 89.285156 L 39.683594 406.746094 C 39.683594 434.144531 61.886719 456.347656 89.285156 456.347656 L 406.746094 456.347656 C 434.144531 456.347656 456.347656 434.144531 456.347656 406.746094 L 456.347656 89.285156 C 456.347656 61.886719 434.144531 39.683594 406.746094 39.683594 Z M 367.0625 188.492188 L 347.222656 188.492188 C 325.984375 188.492188 317.460938 193.453125 317.460938 208.332031 L 317.460938 238.09375 L 367.0625 238.09375 L 357.144531 287.699219 L 317.460938 287.699219 L 317.460938 436.507813 L 267.855469 436.507813 L 267.855469 287.699219 L 228.175781 287.699219 L 228.175781 238.09375 L 267.855469 238.09375 L 267.855469 208.332031 C 267.855469 168.652344 287.699219 138.890625 327.382813 138.890625 C 356.136719 138.890625 367.0625 148.808594 367.0625 148.808594 Z "/>
</g>
</svg>
