<?xml version="1.0" encoding="UTF-8"?>
<svg xmlns="http://www.w3.org/2000/svg" xmlns:xlink="http://www.w3.org/1999/xlink" width="512pt" height="512pt" viewBox="0 0 512 512" version="1.1">
<defs>
<linearGradient id="linear0" gradientUnits="userSpaceOnUse" x1="43" y1="39.5833" x2="43" y2="54.1676" spreadMethod="reflect" gradientTransform="matrix(8,0,0,8,0,0)">
<stop offset="0" style="stop-color:#6DC7FF;stop-opacity:1;"/>
<stop offset="1" style="stop-color:#E6ABFF;stop-opacity:1;"/>
</linearGradient>
<linearGradient id="linear1" gradientUnits="userSpaceOnUse" x1="42" y1="39.5833" x2="42" y2="54.1676" spreadMethod="reflect" gradientTransform="matrix(8,0,0,8,0,0)">
<stop offset="0" style="stop-color:#6DC7FF;stop-opacity:1;"/>
<stop offset="1" style="stop-color:#E6ABFF;stop-opacity:1;"/>
</linearGradient>
<linearGradient id="linear2" gradientUnits="userSpaceOnUse" x1="28" y1="31.0833" x2="28" y2="40.5133" spreadMethod="reflect" gradientTransform="matrix(8,0,0,8,0,0)">
<stop offset="0" style="stop-color:#6DC7FF;stop-opacity:1;"/>
<stop offset="1" style="stop-color:#E6ABFF;stop-opacity:1;"/>
</linearGradient>
<linearGradient id="linear3" gradientUnits="userSpaceOnUse" x1="32" y1="5" x2="32" y2="59.3555" spreadMethod="reflect" gradientTransform="matrix(8,0,0,8,0,0)">
<stop offset="0" style="stop-color:#1A6DFF;stop-opacity:1;"/>
<stop offset="1" style="stop-color:#C822FF;stop-opacity:1;"/>
</linearGradient>
<linearGradient id="linear4" gradientUnits="userSpaceOnUse" x1="28" y1="5" x2="28" y2="59.3555" spreadMethod="reflect" gradientTransform="matrix(8,0,0,8,0,0)">
<stop offset="0" style="stop-color:#1A6DFF;stop-opacity:1;"/>
<stop offset="1" style="stop-color:#C822FF;stop-opacity:1;"/>
</linearGradient>
</defs>
<g id="surface1">
<path style=" stroke:none;fill-rule:nonzero;fill:url(#linear0);" d="M 344 400 L 328 400 L 328 384 C 328 375.175781 335.175781 368 344 368 L 352 368 C 356.414063 368 360 364.414063 360 360 L 360 344 C 360 339.585938 356.414063 336 352 336 L 336 336 C 331.585938 336 328 339.585938 328 344 L 328 352 L 312 352 L 312 344 C 312 330.769531 322.769531 320 336 320 L 352 320 C 365.230469 320 376 330.769531 376 344 L 376 360 C 376 373.230469 365.230469 384 352 384 L 344 384 Z "/>
<path style=" stroke:none;fill-rule:nonzero;fill:url(#linear1);" d="M 328 416 L 344 416 L 344 432 L 328 432 Z "/>
<path style=" stroke:none;fill-rule:nonzero;fill:url(#linear2);" d="M 256 288 C 256 305.671875 241.671875 320 224 320 C 206.328125 320 192 305.671875 192 288 C 192 270.328125 206.328125 256 224 256 C 241.671875 256 256 270.328125 256 288 Z "/>
<path style=" stroke:none;fill-rule:nonzero;fill:url(#linear3);" d="M 368 291.414063 L 368 224 C 368 201.945313 350.054688 184 328 184 L 320 184 L 320 168 C 320 159.175781 312.824219 152 304 152 L 296 152 L 296 120 C 296 80.296875 263.703125 48 224 48 C 184.296875 48 152 80.296875 152 120 L 152 152 L 144 152 C 135.175781 152 128 159.175781 128 168 L 128 184 L 120 184 C 97.945313 184 80 201.945313 80 224 L 80 384 C 80 406.054688 97.945313 424 120 424 L 270.335938 424 C 286.054688 448.046875 313.175781 464 344 464 C 392.519531 464 432 424.519531 432 376 C 432 335.808594 404.878906 301.894531 368 291.414063 Z M 304 184 L 272 184 L 272 168 L 304 168 Z M 168 120 C 168 89.128906 193.128906 64 224 64 C 254.871094 64 280 89.128906 280 120 L 280 152 L 272 152 C 263.175781 152 256 159.175781 256 168 L 256 184 L 192 184 L 192 168 C 192 159.175781 184.824219 152 176 152 L 168 152 Z M 144 168 L 176 168 L 176 184 L 144 184 Z M 120 408 C 109.585938 408 100.792969 401.296875 97.480469 392 L 176 392 L 176 376 L 96 376 L 96 360 L 144 360 L 144 344 L 96 344 L 96 224 C 96 210.769531 106.769531 200 120 200 L 328 200 C 341.230469 200 352 210.769531 352 224 L 352 288.40625 C 349.359375 288.167969 346.695313 288 344 288 C 295.480469 288 256 327.480469 256 376 C 256 387.296875 258.214844 398.0625 262.113281 408 Z M 344 448 C 304.296875 448 272 415.703125 272 376 C 272 336.296875 304.296875 304 344 304 C 383.703125 304 416 336.296875 416 376 C 416 415.703125 383.703125 448 344 448 Z "/>
<path style=" stroke:none;fill-rule:nonzero;fill:url(#linear4);" d="M 264 288 C 264 265.945313 246.054688 248 224 248 C 201.945313 248 184 265.945313 184 288 C 184 301.015625 190.34375 312.488281 200 319.792969 L 200 344 C 200 352.824219 207.175781 360 216 360 L 232 360 C 240.824219 360 248 352.824219 248 344 L 248 319.792969 C 257.65625 312.488281 264 301.015625 264 288 Z M 232 344 L 216 344 L 216 327.191406 C 218.585938 327.71875 221.265625 328 224 328 C 226.734375 328 229.414063 327.71875 232 327.191406 Z M 224 312 C 210.769531 312 200 301.230469 200 288 C 200 274.769531 210.769531 264 224 264 C 237.230469 264 248 274.769531 248 288 C 248 301.230469 237.230469 312 224 312 Z "/>
</g>
</svg>
