<?xml version="1.0" encoding="UTF-8"?>
<svg xmlns="http://www.w3.org/2000/svg" xmlns:xlink="http://www.w3.org/1999/xlink" width="512pt" height="512pt" viewBox="0 0 512 512" version="1.1">
<defs>
<linearGradient id="linear0" gradientUnits="userSpaceOnUse" x1="32" y1="5.5" x2="32" y2="58.6188" spreadMethod="reflect" gradientTransform="matrix(8,0,0,8,0,0)">
<stop offset="0" style="stop-color:#1A6DFF;stop-opacity:1;"/>
<stop offset="1" style="stop-color:#C822FF;stop-opacity:1;"/>
</linearGradient>
<linearGradient id="linear1" gradientUnits="userSpaceOnUse" x1="32" y1="5.5" x2="32" y2="58.6188" spreadMethod="reflect" gradientTransform="matrix(8,0,0,8,0,0)">
<stop offset="0" style="stop-color:#1A6DFF;stop-opacity:1;"/>
<stop offset="1" style="stop-color:#C822FF;stop-opacity:1;"/>
</linearGradient>
<linearGradient id="linear2" gradientUnits="userSpaceOnUse" x1="32" y1="5.5" x2="32" y2="58.6188" spreadMethod="reflect" gradientTransform="matrix(8,0,0,8,0,0)">
<stop offset="0" style="stop-color:#1A6DFF;stop-opacity:1;"/>
<stop offset="1" style="stop-color:#C822FF;stop-opacity:1;"/>
</linearGradient>
<linearGradient id="linear3" gradientUnits="userSpaceOnUse" x1="32" y1="5.5" x2="32" y2="58.6188" spreadMethod="reflect" gradientTransform="matrix(8,0,0,8,0,0)">
<stop offset="0" style="stop-color:#1A6DFF;stop-opacity:1;"/>
<stop offset="1" style="stop-color:#C822FF;stop-opacity:1;"/>
</linearGradient>
<linearGradient id="linear4" gradientUnits="userSpaceOnUse" x1="32" y1="50.8333" x2="32" y2="52.3756" spreadMethod="reflect" gradientTransform="matrix(8,0,0,8,0,0)">
<stop offset="0" style="stop-color:#6DC7FF;stop-opacity:1;"/>
<stop offset="1" style="stop-color:#E6ABFF;stop-opacity:1;"/>
</linearGradient>
<linearGradient id="linear5" gradientUnits="userSpaceOnUse" x1="23.5" y1="10.5" x2="23.5" y2="12.7535" spreadMethod="reflect" gradientTransform="matrix(8,0,0,8,0,0)">
<stop offset="0" style="stop-color:#6DC7FF;stop-opacity:1;"/>
<stop offset="1" style="stop-color:#E6ABFF;stop-opacity:1;"/>
</linearGradient>
<linearGradient id="linear6" gradientUnits="userSpaceOnUse" x1="40.5" y1="10.5" x2="40.5" y2="12.7535" spreadMethod="reflect" gradientTransform="matrix(8,0,0,8,0,0)">
<stop offset="0" style="stop-color:#6DC7FF;stop-opacity:1;"/>
<stop offset="1" style="stop-color:#E6ABFF;stop-opacity:1;"/>
</linearGradient>
</defs>
<g id="surface1">
<path style=" stroke:none;fill-rule:nonzero;fill:url(#linear0);" d="M 384 96 L 368 96 L 368 88 C 368 79.175781 360.824219 72 352 72 L 292.640625 72 C 286.449219 57.886719 272.367188 48 256 48 C 239.632813 48 225.550781 57.886719 219.359375 72 L 160 72 C 151.175781 72 144 79.175781 144 88 L 144 96 L 128 96 C 110.351563 96 96 110.351563 96 128 L 96 432 C 96 449.648438 110.351563 464 128 464 L 384 464 C 401.648438 464 416 449.648438 416 432 L 416 128 C 416 110.351563 401.648438 96 384 96 Z M 352 88 L 352 96 L 296 96 L 296 88 Z M 232 88 C 232 74.769531 242.769531 64 256 64 C 269.230469 64 280 74.769531 280 88 L 280.015625 144 L 232 144 Z M 232 160 L 280 160 C 288.824219 160 296 152.824219 296 144 L 368 144 L 368 392 L 144 392 L 144 144 L 216 144 C 216 152.824219 223.175781 160 232 160 Z M 144 408 L 368 408 L 368 416 L 144 416 Z M 160 88 L 216 88 L 216 96 L 160 96 Z M 400 432 C 400 440.824219 392.824219 448 384 448 L 128 448 C 119.175781 448 112 440.824219 112 432 L 112 128 C 112 119.175781 119.175781 112 128 112 L 216 112 L 216 128 L 144 128 C 135.175781 128 128 135.175781 128 144 L 128 416 C 128 424.824219 135.175781 432 144 432 L 368 432 C 376.824219 432 384 424.824219 384 416 L 384 144 C 384 135.175781 376.824219 128 368 128 L 296 128 L 296 112 L 384 112 C 392.824219 112 400 119.175781 400 128 Z "/>
<path style=" stroke:none;fill-rule:nonzero;fill:url(#linear1);" d="M 194.34375 245.65625 L 228.695313 280.007813 C 231.816406 283.128906 235.902344 284.6875 240 284.6875 C 244.097656 284.6875 248.183594 283.128906 251.304688 280.007813 L 317.65625 213.65625 L 306.34375 202.34375 L 240.007813 268.695313 L 205.65625 234.34375 Z "/>
<path style=" stroke:none;fill-rule:nonzero;fill:url(#linear2);" d="M 184 312 L 328 312 L 328 328 L 184 328 Z "/>
<path style=" stroke:none;fill-rule:nonzero;fill:url(#linear3);" d="M 200 344 L 312 344 L 312 360 L 200 360 Z "/>
<path style=" stroke:none;fill-rule:nonzero;fill:url(#linear4);" d="M 144 408 L 368 408 L 368 416 L 144 416 Z "/>
<path style=" stroke:none;fill-rule:nonzero;fill:url(#linear5);" d="M 160 88 L 216 88 L 216 96 L 160 96 Z "/>
<path style=" stroke:none;fill-rule:nonzero;fill:url(#linear6);" d="M 296 88 L 352 88 L 352 96 L 296 96 Z "/>
</g>
</svg>
