<?xml version="1.0" encoding="UTF-8"?>
<svg xmlns="http://www.w3.org/2000/svg" xmlns:xlink="http://www.w3.org/1999/xlink" width="512pt" height="512pt" viewBox="0 0 512 512" version="1.1">
<defs>
<linearGradient id="linear0" gradientUnits="userSpaceOnUse" x1="36" y1="39.8333" x2="36" y2="44.1795" spreadMethod="reflect" gradientTransform="matrix(8,0,0,8,0,0)">
<stop offset="0" style="stop-color:#6DC7FF;stop-opacity:1;"/>
<stop offset="1" style="stop-color:#E6ABFF;stop-opacity:1;"/>
</linearGradient>
<linearGradient id="linear1" gradientUnits="userSpaceOnUse" x1="42" y1="39.8333" x2="42" y2="44.1795" spreadMethod="reflect" gradientTransform="matrix(8,0,0,8,0,0)">
<stop offset="0" style="stop-color:#6DC7FF;stop-opacity:1;"/>
<stop offset="1" style="stop-color:#E6ABFF;stop-opacity:1;"/>
</linearGradient>
<linearGradient id="linear2" gradientUnits="userSpaceOnUse" x1="48" y1="39.8333" x2="48" y2="44.1795" spreadMethod="reflect" gradientTransform="matrix(8,0,0,8,0,0)">
<stop offset="0" style="stop-color:#6DC7FF;stop-opacity:1;"/>
<stop offset="1" style="stop-color:#E6ABFF;stop-opacity:1;"/>
</linearGradient>
<linearGradient id="linear3" gradientUnits="userSpaceOnUse" x1="30" y1="39.8333" x2="30" y2="44.1795" spreadMethod="reflect" gradientTransform="matrix(8,0,0,8,0,0)">
<stop offset="0" style="stop-color:#6DC7FF;stop-opacity:1;"/>
<stop offset="1" style="stop-color:#E6ABFF;stop-opacity:1;"/>
</linearGradient>
<linearGradient id="linear4" gradientUnits="userSpaceOnUse" x1="32" y1="5.3333" x2="32" y2="58.8042" spreadMethod="reflect" gradientTransform="matrix(8,0,0,8,0,0)">
<stop offset="0" style="stop-color:#1A6DFF;stop-opacity:1;"/>
<stop offset="1" style="stop-color:#C822FF;stop-opacity:1;"/>
</linearGradient>
</defs>
<g id="surface1">
<path style=" stroke:none;fill-rule:nonzero;fill:url(#linear0);" d="M 304 336 C 304 344.835938 296.835938 352 288 352 C 279.164063 352 272 344.835938 272 336 C 272 327.164063 279.164063 320 288 320 C 296.835938 320 304 327.164063 304 336 Z "/>
<path style=" stroke:none;fill-rule:nonzero;fill:url(#linear1);" d="M 352 336 C 352 344.835938 344.835938 352 336 352 C 327.164063 352 320 344.835938 320 336 C 320 327.164063 327.164063 320 336 320 C 344.835938 320 352 327.164063 352 336 Z "/>
<path style=" stroke:none;fill-rule:nonzero;fill:url(#linear2);" d="M 400 336 C 400 344.835938 392.835938 352 384 352 C 375.164063 352 368 344.835938 368 336 C 368 327.164063 375.164063 320 384 320 C 392.835938 320 400 327.164063 400 336 Z "/>
<path style=" stroke:none;fill-rule:nonzero;fill:url(#linear3);" d="M 256 336 C 256 344.835938 248.835938 352 240 352 C 231.164063 352 224 344.835938 224 336 C 224 327.164063 231.164063 320 240 320 C 248.835938 320 256 327.164063 256 336 Z "/>
<path style=" stroke:none;fill-rule:nonzero;fill:url(#linear4);" d="M 416.167969 272 L 376 272 L 376 248 C 376 225.945313 358.054688 208 336 208 L 328 208 L 328 192 C 328 183.175781 320.824219 176 312 176 L 296 176 L 296 120 C 296 80.296875 263.703125 48 224 48 C 184.296875 48 152 80.296875 152 120 L 152 176 L 136 176 C 127.175781 176 120 183.175781 120 192 L 120 208 L 112 208 C 89.945313 208 72 225.945313 72 248 L 72 424 C 72 446.054688 89.945313 464 112 464 L 336 464 C 358.054688 464 376 446.054688 376 424 L 376 400 L 416.167969 400 C 429.304688 400 440 389.304688 440 376.167969 L 440 295.832031 C 440 282.695313 429.304688 272 416.167969 272 Z M 312 208 L 264 208 L 264 192 L 312 192 Z M 168 120 C 168 89.128906 193.128906 64 224 64 C 254.871094 64 280 89.128906 280 120 L 280 176 L 264 176 C 255.175781 176 248 183.175781 248 192 L 248 208 L 200 208 L 200 192 C 200 183.175781 192.824219 176 184 176 L 168 176 Z M 136 192 L 184 192 L 184 208 L 136 208 Z M 360 424 C 360 437.230469 349.230469 448 336 448 L 280 448 C 280 439.175781 272.824219 432 264 432 L 184 432 C 175.175781 432 168 439.175781 168 448 L 112 448 C 98.769531 448 88 437.230469 88 424 L 88 392 L 120 392 L 120 376 L 88 376 L 88 360 L 120 360 L 120 344 L 88 344 L 88 328 L 120 328 L 120 312 L 88 312 L 88 296 L 120 296 L 120 280 L 88 280 L 88 248 C 88 234.769531 98.769531 224 112 224 L 336 224 C 349.230469 224 360 234.769531 360 248 L 360 272 L 207.832031 272 C 194.695313 272 184 282.695313 184 295.832031 L 184 376.160156 C 184 389.304688 194.695313 400 207.832031 400 L 360 400 Z M 424 376.167969 C 424 380.488281 420.488281 384 416.167969 384 L 207.832031 384 C 203.511719 384 200 380.488281 200 376.167969 L 200 295.832031 C 200 291.511719 203.511719 288 207.832031 288 L 416.160156 288 C 420.488281 288 424 291.511719 424 295.832031 Z "/>
</g>
</svg>
