<?xml version="1.0" encoding="UTF-8"?>
<svg xmlns="http://www.w3.org/2000/svg" xmlns:xlink="http://www.w3.org/1999/xlink" width="512pt" height="512pt" viewBox="0 0 512 512" version="1.1">
<defs>
<linearGradient id="linear0" gradientUnits="userSpaceOnUse" x1="20.5451" y1="5.8542" x2="20.5451" y2="21.1048" spreadMethod="reflect" gradientTransform="matrix(8,0,0,8,0,0)">
<stop offset="0" style="stop-color:#6DC7FF;stop-opacity:1;"/>
<stop offset="1" style="stop-color:#E6ABFF;stop-opacity:1;"/>
</linearGradient>
<linearGradient id="linear1" gradientUnits="userSpaceOnUse" x1="50.4933" y1="35.9792" x2="50.4933" y2="50.4879" spreadMethod="reflect" gradientTransform="matrix(8,0,0,8,0,0)">
<stop offset="0" style="stop-color:#6DC7FF;stop-opacity:1;"/>
<stop offset="1" style="stop-color:#E6ABFF;stop-opacity:1;"/>
</linearGradient>
<linearGradient id="linear2" gradientUnits="userSpaceOnUse" x1="32" y1="4.9792" x2="32" y2="60.5811" spreadMethod="reflect" gradientTransform="matrix(8,0,0,8,0,0)">
<stop offset="0" style="stop-color:#1A6DFF;stop-opacity:1;"/>
<stop offset="1" style="stop-color:#C822FF;stop-opacity:1;"/>
</linearGradient>
</defs>
<g id="surface1">
<path style=" stroke:none;fill-rule:nonzero;fill:url(#linear0);" d="M 184.328125 154.519531 L 117.777344 87.96875 C 110.425781 80.617188 110.425781 68.695313 117.777344 61.34375 C 125.128906 53.992188 137.046875 53.992188 144.398438 61.34375 L 210.953125 127.894531 C 218.304688 135.246094 218.304688 147.167969 210.953125 154.519531 C 203.59375 161.871094 191.679688 161.871094 184.328125 154.519531 Z "/>
<path style=" stroke:none;fill-rule:nonzero;fill:url(#linear1);" d="M 423.910156 394.105469 L 357.359375 327.550781 C 350.007813 320.199219 350.007813 308.28125 357.359375 300.929688 C 364.710938 293.574219 376.632813 293.574219 383.984375 300.929688 L 450.535156 367.480469 C 457.886719 374.832031 457.886719 386.753906 450.535156 394.105469 C 443.183594 401.457031 431.265625 401.457031 423.910156 394.105469 Z "/>
<path style=" stroke:none;fill-rule:nonzero;fill:url(#linear2);" d="M 456.191406 361.824219 L 389.640625 295.28125 C 379.503906 285.136719 361.832031 285.136719 351.703125 295.28125 L 308.015625 338.96875 C 304.703125 342.28125 299.640625 343.152344 295.671875 341.121094 C 241.023438 312.886719 199 270.863281 170.769531 216.214844 C 168.726563 212.257813 169.601563 207.183594 172.910156 203.878906 L 216.609375 160.183594 C 227.070313 149.71875 227.070313 132.703125 216.609375 122.246094 L 150.054688 55.703125 C 139.921875 45.558594 122.246094 45.558594 112.121094 55.703125 L 72.585938 95.230469 C 45.3125 122.503906 40.113281 164.296875 59.945313 196.847656 C 124.046875 302.03125 209.871094 387.863281 315.039063 451.9375 C 328.257813 460 342.992188 463.921875 357.664063 463.921875 C 379.128906 463.921875 400.457031 455.503906 416.65625 439.304688 L 456.175781 399.792969 C 456.175781 399.792969 456.191406 399.785156 456.199219 399.777344 C 466.648438 389.304688 466.648438 372.289063 456.191406 361.824219 Z M 378.320313 306.59375 L 444.871094 373.136719 C 449.097656 377.351563 449.097656 384.230469 444.871094 388.449219 C 440.65625 392.65625 433.785156 392.65625 429.558594 388.449219 L 363.007813 321.894531 C 358.792969 317.679688 358.792969 310.808594 363.007813 306.59375 C 367.105469 302.496094 374.238281 302.496094 378.320313 306.59375 Z M 138.734375 67.007813 L 205.289063 133.550781 C 209.511719 137.769531 209.511719 144.648438 205.289063 148.863281 C 201.070313 153.0625 194.199219 153.078125 189.976563 148.863281 L 123.425781 82.3125 C 119.207031 78.097656 119.207031 71.222656 123.425781 67.007813 C 127.511719 62.910156 134.648438 62.910156 138.734375 67.007813 Z M 405.335938 427.984375 C 383.304688 450.039063 349.59375 454.246094 323.359375 438.273438 C 220.390625 375.527344 136.359375 291.496094 73.601563 188.511719 C 57.617188 162.289063 61.847656 128.574219 83.886719 106.535156 L 106.105469 84.328125 C 107.40625 87.710938 109.382813 90.894531 112.113281 93.625 L 178.664063 160.175781 C 181.390625 162.902344 184.574219 164.878906 187.960938 166.183594 L 161.601563 192.550781 C 153.289063 200.855469 151.265625 213.3125 156.550781 223.550781 C 186.335938 281.207031 230.671875 325.542969 288.335938 355.335938 C 292.136719 357.296875 296.230469 358.246094 300.320313 358.246094 C 307.238281 358.246094 314.105469 355.503906 319.328125 350.289063 L 345.703125 323.910156 C 347.007813 327.296875 348.984375 330.480469 351.710938 333.207031 L 418.265625 399.761719 C 420.992188 402.488281 424.175781 404.464844 427.558594 405.769531 Z "/>
</g>
</svg>
