<?xml version="1.0" encoding="UTF-8"?>
<svg xmlns="http://www.w3.org/2000/svg" xmlns:xlink="http://www.w3.org/1999/xlink" width="512pt" height="512pt" viewBox="0 0 512 512" version="1.1">
<defs>
<linearGradient id="linear0" gradientUnits="userSpaceOnUse" x1="20.4991" y1="13.0011" x2="20.4991" y2="23.5843" spreadMethod="reflect" gradientTransform="matrix(8,0,0,8,0,0)">
<stop offset="0" style="stop-color:#6DC7FF;stop-opacity:1;"/>
<stop offset="1" style="stop-color:#E6ABFF;stop-opacity:1;"/>
</linearGradient>
<linearGradient id="linear1" gradientUnits="userSpaceOnUse" x1="24.5112" y1="5.2702" x2="26.0114" y2="59.7769" spreadMethod="reflect" gradientTransform="matrix(8,0,0,8,0,0)">
<stop offset="0" style="stop-color:#1A6DFF;stop-opacity:1;"/>
<stop offset="1" style="stop-color:#C822FF;stop-opacity:1;"/>
</linearGradient>
<linearGradient id="linear2" gradientUnits="userSpaceOnUse" x1="31.1088" y1="5.0886" x2="32.609" y2="59.5953" spreadMethod="reflect" gradientTransform="matrix(8,0,0,8,0,0)">
<stop offset="0" style="stop-color:#1A6DFF;stop-opacity:1;"/>
<stop offset="1" style="stop-color:#C822FF;stop-opacity:1;"/>
</linearGradient>
</defs>
<g id="surface1">
<path style=" stroke:none;fill-rule:nonzero;fill:url(#linear0);" d="M 200 112.007813 C 160 112.007813 127.984375 144 127.984375 184 L 200 184 Z "/>
<path style=" stroke:none;fill-rule:nonzero;fill:url(#linear1);" d="M 199.992188 80 C 142.640625 80 95.976563 126.65625 95.976563 184.015625 C 95.976563 241.375 142.640625 288.03125 199.992188 288.03125 C 257.34375 288.03125 304.007813 241.375 304.007813 184.015625 C 304.007813 126.65625 257.34375 80 199.992188 80 Z M 199.992188 272.023438 C 151.464844 272.023438 111.984375 232.542969 111.984375 184.015625 C 111.984375 135.488281 151.464844 96.007813 199.992188 96.007813 C 248.519531 96.007813 288 135.488281 288 184.015625 C 288 232.542969 248.519531 272.023438 199.992188 272.023438 Z "/>
<path style=" stroke:none;fill-rule:nonzero;fill:url(#linear2);" d="M 438.160156 388.472656 L 368.144531 309.558594 C 362.390625 303.0625 352.183594 302.199219 345.382813 307.617188 L 325.496094 323.398438 L 292.496094 283.449219 C 319.191406 258.601563 336.007813 223.28125 336.007813 184.015625 C 336.007813 109.015625 274.992188 48 199.992188 48 C 124.992188 48 63.976563 109.015625 63.976563 184.015625 C 63.976563 259.015625 124.992188 320.03125 199.992188 320.03125 C 229.984375 320.03125 257.648438 310.160156 280.160156 293.648438 L 312.953125 333.351563 L 294.023438 348.367188 C 290.550781 351.121094 288.441406 355.023438 288.054688 359.359375 C 287.679688 363.671875 289.070313 367.839844 291.976563 371.113281 L 362 450.03125 C 370.175781 459.246094 381.910156 464 393.71875 464 C 403.070313 464 412.472656 461.015625 420.175781 454.902344 L 433.03125 444.710938 C 441.671875 437.847656 446.945313 428.167969 447.878906 417.464844 C 448.800781 406.871094 445.351563 396.574219 438.160156 388.472656 Z M 79.976563 184.015625 C 79.976563 117.839844 133.816406 64 199.992188 64 C 266.167969 64 320.007813 117.839844 320.007813 184.015625 C 320.007813 250.191406 266.175781 304.03125 199.992188 304.03125 C 133.808594 304.03125 79.976563 250.191406 79.976563 184.015625 Z M 389.136719 357.328125 L 337.398438 398.390625 L 325.585938 385.144531 L 377.359375 344.054688 Z M 355.34375 320.144531 C 355.449219 320.0625 355.585938 320.03125 355.734375 320.03125 C 355.910156 320.03125 356.097656 320.089844 356.175781 320.175781 L 366.726563 332.070313 L 314.921875 373.183594 L 303.976563 360.910156 Z M 423.078125 432.175781 L 410.222656 442.367188 C 399.335938 451.015625 383.070313 449.6875 373.96875 439.414063 L 348.054688 410.359375 L 399.769531 369.320313 L 426.191406 399.097656 C 430.433594 403.878906 432.472656 409.902344 431.9375 416.070313 C 431.390625 422.359375 428.238281 428.078125 423.078125 432.175781 Z "/>
</g>
</svg>
