<?xml version="1.0" encoding="UTF-8"?>
<svg xmlns="http://www.w3.org/2000/svg" xmlns:xlink="http://www.w3.org/1999/xlink" width="512pt" height="512pt" viewBox="0 0 512 512" version="1.1">
<defs>
<linearGradient id="linear0" gradientUnits="userSpaceOnUse" x1="32" y1="8" x2="32" y2="55.0439" spreadMethod="reflect" gradientTransform="matrix(8,0,0,8,0,0)">
<stop offset="0" style="stop-color:#1A6DFF;stop-opacity:1;"/>
<stop offset="1" style="stop-color:#C822FF;stop-opacity:1;"/>
</linearGradient>
<linearGradient id="linear1" gradientUnits="userSpaceOnUse" x1="29" y1="8" x2="29" y2="55.0439" spreadMethod="reflect" gradientTransform="matrix(8,0,0,8,0,0)">
<stop offset="0" style="stop-color:#1A6DFF;stop-opacity:1;"/>
<stop offset="1" style="stop-color:#C822FF;stop-opacity:1;"/>
</linearGradient>
<linearGradient id="linear2" gradientUnits="userSpaceOnUse" x1="26" y1="8" x2="26" y2="55.0439" spreadMethod="reflect" gradientTransform="matrix(8,0,0,8,0,0)">
<stop offset="0" style="stop-color:#1A6DFF;stop-opacity:1;"/>
<stop offset="1" style="stop-color:#C822FF;stop-opacity:1;"/>
</linearGradient>
<linearGradient id="linear3" gradientUnits="userSpaceOnUse" x1="23" y1="8" x2="23" y2="55.0439" spreadMethod="reflect" gradientTransform="matrix(8,0,0,8,0,0)">
<stop offset="0" style="stop-color:#1A6DFF;stop-opacity:1;"/>
<stop offset="1" style="stop-color:#C822FF;stop-opacity:1;"/>
</linearGradient>
<linearGradient id="linear4" gradientUnits="userSpaceOnUse" x1="37" y1="45.875" x2="37" y2="52.1362" spreadMethod="reflect" gradientTransform="matrix(8,0,0,8,0,0)">
<stop offset="0" style="stop-color:#6DC7FF;stop-opacity:1;"/>
<stop offset="1" style="stop-color:#E6ABFF;stop-opacity:1;"/>
</linearGradient>
<linearGradient id="linear5" gradientUnits="userSpaceOnUse" x1="19" y1="45.875" x2="19" y2="52.1362" spreadMethod="reflect" gradientTransform="matrix(8,0,0,8,0,0)">
<stop offset="0" style="stop-color:#6DC7FF;stop-opacity:1;"/>
<stop offset="1" style="stop-color:#E6ABFF;stop-opacity:1;"/>
</linearGradient>
</defs>
<g id="surface1">
<path style=" stroke:none;fill-rule:nonzero;fill:url(#linear0);" d="M 440 144 L 160 144 L 160 104 C 160 90.769531 149.230469 80 136 80 L 72 80 C 58.769531 80 48 90.769531 48 104 C 48 117.230469 58.769531 128 72 128 L 144 128 L 144 192 L 360 192 L 360 176 L 160 176 L 160 160 L 440 160 C 444.414063 160 448 163.585938 448 168 L 448 200 C 448 207.511719 444.414063 214.6875 438.40625 219.199219 L 331.726563 299.199219 C 327.609375 302.296875 322.496094 304 317.335938 304 L 168 304 C 154.769531 304 144 314.769531 144 328 L 144 352.808594 C 125.769531 356.527344 112 372.679688 112 392 C 112 414.054688 129.945313 432 152 432 C 171.320313 432 187.472656 418.230469 191.191406 400 L 256.808594 400 C 260.527344 418.230469 276.679688 432 296 432 C 318.054688 432 336 414.054688 336 392 C 336 369.945313 318.054688 352 296 352 C 276.679688 352 260.527344 365.769531 256.808594 384 L 191.191406 384 C 188 368.351563 175.648438 356 160 352.808594 L 160 328 C 160 323.585938 163.585938 320 168 320 L 317.335938 320 C 325.9375 320 334.464844 317.160156 341.328125 312 L 448.007813 232 C 458.023438 224.488281 464 212.511719 464 200 L 464 168 C 464 154.769531 453.230469 144 440 144 Z M 72 112 C 67.585938 112 64 108.414063 64 104 C 64 99.585938 67.585938 96 72 96 L 136 96 C 140.414063 96 144 99.585938 144 104 L 144 112 Z M 296 368 C 309.230469 368 320 378.769531 320 392 C 320 405.230469 309.230469 416 296 416 C 282.769531 416 272 405.230469 272 392 C 272 378.769531 282.769531 368 296 368 Z M 176 392 C 176 405.230469 165.230469 416 152 416 C 138.769531 416 128 405.230469 128 392 C 128 378.769531 138.769531 368 152 368 C 165.230469 368 176 378.769531 176 392 Z "/>
<path style=" stroke:none;fill-rule:nonzero;fill:url(#linear1);" d="M 144 208 L 320 208 L 320 224 L 144 224 Z "/>
<path style=" stroke:none;fill-rule:nonzero;fill:url(#linear2);" d="M 144 240 L 272 240 L 272 256 L 144 256 Z "/>
<path style=" stroke:none;fill-rule:nonzero;fill:url(#linear3);" d="M 144 272 L 224 272 L 224 288 L 144 288 Z "/>
<path style=" stroke:none;fill-rule:nonzero;fill:url(#linear4);" d="M 320 392 C 320 405.253906 309.253906 416 296 416 C 282.746094 416 272 405.253906 272 392 C 272 378.746094 282.746094 368 296 368 C 309.253906 368 320 378.746094 320 392 Z "/>
<path style=" stroke:none;fill-rule:nonzero;fill:url(#linear5);" d="M 176 392 C 176 405.253906 165.253906 416 152 416 C 138.746094 416 128 405.253906 128 392 C 128 378.746094 138.746094 368 152 368 C 165.253906 368 176 378.746094 176 392 Z "/>
</g>
</svg>
