<?xml version="1.0" encoding="UTF-8"?>
<svg xmlns="http://www.w3.org/2000/svg" xmlns:xlink="http://www.w3.org/1999/xlink" width="480pt" height="480pt" viewBox="0 0 480 480" version="1.1">
<g id="surface1">
<path style=" stroke:none;fill-rule:nonzero;fill:#03A9F4;fill-opacity:1;" d="M 420 124.289063 C 406.769531 130.148438 392.539063 134.058594 377.53125 135.910156 C 392.789063 126.851563 404.53125 112.398438 410.039063 95.328125 C 395.761719 103.699219 379.941406 109.851563 363.109375 113.089844 C 349.671875 98.839844 330.5 90 309.261719 90 C 268.460938 90 235.390625 122.78125 235.390625 163.199219 C 235.390625 168.921875 236.058594 174.488281 237.320313 179.898438 C 175.941406 176.820313 121.5 147.640625 85.078125 103.359375 C 78.679688 114.179688 75.078125 126.851563 75.078125 140.21875 C 75.078125 165.628906 88.089844 188 107.929688 201.179688 C 95.820313 200.808594 84.421875 197.441406 74.441406 192.039063 C 74.441406 192.261719 74.441406 192.589844 74.441406 192.898438 C 74.441406 228.410156 99.910156 257.980469 133.671875 264.710938 C 127.5 266.398438 120.980469 267.339844 114.261719 267.339844 C 109.488281 267.339844 104.839844 266.800781 100.339844 265.988281 C 109.738281 295.011719 137.011719 316.21875 169.320313 316.851563 C 144.039063 336.449219 112.199219 348.191406 77.578125 348.191406 C 71.601563 348.191406 65.75 347.851563 59.96875 347.148438 C 92.679688 367.859375 131.519531 380 173.210938 380 C 309.058594 380 383.378906 268.441406 383.378906 171.660156 C 383.378906 168.488281 383.28125 165.328125 383.128906 162.210938 C 397.628906 151.96875 410.128906 139.050781 420 124.289063 "/>
</g>
</svg>
