<?xml version="1.0" encoding="UTF-8"?>
<svg xmlns="http://www.w3.org/2000/svg" xmlns:xlink="http://www.w3.org/1999/xlink" width="512pt" height="512pt" viewBox="0 0 512 512" version="1.1">
<g id="surface1">
<path style=" stroke:none;fill-rule:nonzero;fill:#85CBF8;fill-opacity:1;" d="M 352 472 C 349.289063 472 346.761719 470.625 345.28125 468.34375 L 245.511719 314.160156 C 244.449219 312.511719 242.800781 312.328125 242.144531 312.328125 C 241.382813 312.328125 239.960938 312.542969 238.910156 313.984375 L 126.800781 468.695313 C 125.296875 470.777344 122.878906 472 120.320313 472 L 80 472 C 76.992188 472 74.238281 470.3125 72.871094 467.632813 C 71.503906 464.960938 71.753906 461.742188 73.519531 459.304688 L 212.398438 267.679688 C 213.375 266.335938 213.425781 264.550781 212.519531 263.152344 L 81.28125 60.34375 C 79.6875 57.878906 79.566406 54.753906 80.96875 52.175781 C 82.375 49.601563 85.070313 48 88 48 L 160 48 C 162.710938 48 165.238281 49.375 166.71875 51.65625 L 258.9375 194.175781 C 260 195.824219 261.648438 196.007813 262.304688 196.007813 C 263.0625 196.007813 264.488281 195.792969 265.535156 194.351563 L 369.199219 51.304688 C 370.703125 49.222656 373.121094 48 375.679688 48 L 416 48 C 419.007813 48 421.761719 49.6875 423.128906 52.367188 C 424.496094 55.039063 424.246094 58.257813 422.480469 60.695313 L 292.054688 240.65625 C 291.097656 241.984375 291.046875 243.808594 291.9375 245.175781 L 430.71875 459.65625 C 432.3125 462.121094 432.433594 465.246094 431.03125 467.824219 C 429.625 470.398438 426.929688 472 424 472 Z "/>
<path style=" stroke:none;fill-rule:nonzero;fill:#9FDDFF;fill-opacity:1;" d="M 80.671875 60.191406 L 218 274 C 231.503906 259 236.6875 226 224 206.496094 L 147 84.992188 C 134.3125 65.496094 103 53 80.671875 60.191406 Z "/>
<path style=" stroke:none;fill-rule:nonzero;fill:#9FDDFF;fill-opacity:1;" d="M 238.671875 305.191406 L 345.503906 471 C 364.871094 458.183594 370.335938 432.144531 357.648438 412.640625 L 296.945313 317.753906 C 284.257813 298.246094 258.230469 292.679688 238.671875 305.191406 Z "/>
<path style=" stroke:none;fill-rule:nonzero;fill:#8D6C9F;fill-opacity:1;" d="M 226.664063 370.984375 C 224.046875 374.542969 224.824219 379.550781 228.382813 382.167969 L 241.289063 391.632813 C 244.847656 394.246094 249.855469 393.472656 252.472656 389.910156 C 255.089844 386.351563 254.3125 381.34375 250.753906 378.726563 L 237.847656 369.265625 C 234.28125 366.648438 229.273438 367.425781 226.664063 370.984375 Z "/>
<path style=" stroke:none;fill-rule:nonzero;fill:#8D6C9F;fill-opacity:1;" d="M 203.007813 403.238281 C 200.390625 406.800781 201.167969 411.808594 204.726563 414.425781 L 217.632813 423.886719 C 221.191406 426.503906 226.199219 425.726563 228.816406 422.167969 C 231.433594 418.609375 230.65625 413.601563 227.097656 410.984375 L 214.191406 401.519531 C 210.632813 398.902344 205.625 399.679688 203.007813 403.238281 Z "/>
<path style=" stroke:none;fill-rule:nonzero;fill:#8D6C9F;fill-opacity:1;" d="M 179.359375 435.496094 C 176.742188 439.054688 177.519531 444.0625 181.078125 446.679688 L 193.984375 456.144531 C 197.542969 458.761719 202.550781 457.984375 205.167969 454.425781 C 207.785156 450.863281 207.007813 445.855469 203.449219 443.238281 L 190.542969 433.777344 C 186.976563 431.167969 181.96875 431.9375 179.359375 435.496094 Z "/>
<path style=" stroke:none;fill-rule:nonzero;fill:#8D6C9F;fill-opacity:1;" d="M 155.703125 467.761719 C 153.089844 471.320313 153.863281 476.328125 157.425781 478.945313 L 170.328125 488.40625 C 173.886719 491.023438 178.894531 490.246094 181.511719 486.6875 C 184.128906 483.128906 183.351563 478.121094 179.792969 475.503906 L 166.886719 466.039063 C 163.328125 463.425781 158.320313 464.191406 155.703125 467.761719 Z "/>
<path style=" stroke:none;fill-rule:nonzero;fill:#8D6C9F;fill-opacity:1;" d="M 173.457031 138.160156 C 170.832031 138.160156 168.265625 136.871094 166.726563 134.503906 L 149.359375 107.640625 C 146.960938 103.929688 148.023438 98.976563 151.734375 96.574219 C 155.457031 94.183594 160.398438 95.246094 162.800781 98.953125 L 180.167969 125.816406 C 182.566406 129.527344 181.503906 134.480469 177.792969 136.878906 C 176.449219 137.742188 174.945313 138.160156 173.457031 138.160156 Z "/>
<path style=" stroke:none;fill-rule:nonzero;fill:#8D6C9F;fill-opacity:1;" d="M 225.585938 218.777344 C 222.960938 218.777344 220.390625 217.488281 218.855469 215.121094 L 184.105469 161.375 C 181.703125 157.664063 182.769531 152.710938 186.480469 150.3125 C 190.191406 147.921875 195.144531 148.984375 197.542969 152.6875 L 232.296875 206.433594 C 234.695313 210.144531 233.632813 215.097656 229.921875 217.496094 C 228.574219 218.359375 227.070313 218.777344 225.585938 218.777344 Z "/>
<path style=" stroke:none;fill-rule:nonzero;fill:#8D6C9F;fill-opacity:1;" d="M 416 56 L 285.574219 235.960938 C 282.664063 239.976563 282.527344 245.359375 285.214844 249.519531 L 424 464 L 352 464 L 252.230469 309.816406 C 249.878906 306.175781 246.015625 304.335938 242.152344 304.335938 C 238.503906 304.335938 234.839844 305.976563 232.441406 309.296875 L 120.320313 464 L 80 464 L 218.871094 272.375 C 221.777344 268.359375 221.921875 262.976563 219.230469 258.816406 L 88 56 L 160 56 L 252.222656 198.527344 C 254.574219 202.167969 258.441406 204.007813 262.304688 204.007813 C 265.953125 204.007813 269.617188 202.367188 272.015625 199.046875 L 375.679688 56 L 416 56 M 416 40 L 375.679688 40 C 370.550781 40 365.734375 42.457031 362.726563 46.609375 L 262.488281 184.929688 L 173.433594 47.3125 C 170.488281 42.753906 165.425781 40 160 40 L 88 40 C 82.136719 40 76.742188 43.207031 73.945313 48.351563 C 71.144531 53.503906 71.382813 59.769531 74.566406 64.6875 L 204.3125 265.199219 L 67.046875 454.609375 C 63.519531 459.480469 63.015625 465.910156 65.753906 471.273438 C 68.480469 476.632813 73.984375 480 80 480 L 120.320313 480 C 125.449219 480 130.265625 477.542969 133.273438 473.390625 L 241.96875 323.40625 L 338.566406 472.695313 C 341.511719 477.246094 346.574219 480 352 480 L 424 480 C 429.863281 480 435.257813 476.792969 438.054688 471.648438 C 440.855469 466.496094 440.617188 460.230469 437.433594 455.3125 L 300.144531 243.136719 L 428.953125 65.390625 C 432.480469 60.519531 432.984375 54.089844 430.246094 48.726563 C 427.519531 43.367188 422.015625 40 416 40 Z "/>
</g>
</svg>
